<svg width="35" height="29" viewBox="0 0 35 29" fill="none" xmlns="http://www.w3.org/2000/svg">
<path d="M18.111 1.40846C18.111 1.58902 18.1276 1.77779 18.111 1.95835C18.0862 2.18815 18.202 2.25381 18.4087 2.28664C19.219 2.39333 20.0293 2.51644 20.8479 2.62314C21.6086 2.72162 22.2949 3.04171 23.006 3.29613C23.2706 3.39462 23.5434 3.46027 23.7997 3.57518C24.1057 3.72291 24.4033 3.90347 24.701 4.06761C25.0814 4.281 25.4617 4.48618 25.8255 4.72419C26.1811 4.9622 26.5366 5.22483 26.8591 5.50388C27.4296 6.00452 28.0001 6.52158 28.5376 7.06325C28.9014 7.43258 29.2487 7.82653 29.5463 8.2533C30.1003 9.06582 30.6708 9.87013 31.1173 10.7401C31.4977 11.4705 31.9028 12.2174 32.0351 13.0627C32.0847 13.4075 32.2915 13.7275 32.3741 14.0804C32.5312 14.7781 32.6635 15.4839 32.7793 16.1897C32.8454 16.5919 32.8702 17.0022 32.895 17.4044C32.9116 17.6096 33.0025 17.6916 33.2092 17.6916C33.5813 17.6916 33.9451 17.6916 34.3172 17.6916C34.6645 17.6916 34.9539 17.9214 34.9952 18.2497C35.0366 18.5452 34.8051 18.8406 34.4495 18.8981C34.094 18.9473 33.7302 18.9802 33.3746 18.9802C22.7414 18.9802 12.1081 18.9802 1.4749 18.9884C1.24339 18.9884 1.02014 19.0376 0.788621 19.0622C0.499225 19.1033 0.0279224 18.6929 0.00311701 18.3646C-0.0299568 17.9296 0.20156 17.6834 0.63152 17.6752C1.03667 17.667 1.44183 17.6506 1.83871 17.6096C1.91313 17.6096 2.01235 17.4782 2.02889 17.4044C2.10331 16.9119 2.16119 16.4113 2.2108 15.9107C2.30175 15.0489 2.51673 14.2118 2.77305 13.3828C3.32704 11.5772 4.17869 9.91937 5.31147 8.40103C5.97294 7.51465 6.73364 6.71034 7.55222 5.96348C7.98218 5.56954 8.51136 5.29049 8.94959 4.91296C9.64414 4.31383 10.4875 3.96912 11.2813 3.55055C11.8105 3.27151 12.4141 3.1484 12.9846 2.95963C13.1004 2.9186 13.2078 2.85294 13.3236 2.82011C14.0099 2.64776 14.6962 2.47541 15.3907 2.33588C15.7876 2.25381 16.201 2.2456 16.6145 2.21277C16.7881 2.20457 16.8129 2.10608 16.8212 1.96656C16.8212 1.46592 16.8212 0.965273 16.846 0.464632C16.846 0.398974 16.9204 0.325108 16.97 0.275865C17.1767 0.0624767 17.433 -0.0688391 17.7142 0.037855C17.9953 0.144549 18.0862 0.423595 18.1028 0.702642C18.1193 0.932444 18.1028 1.16225 18.1028 1.39205L18.111 1.40846ZM11.025 5.45463C11.025 5.45463 10.9754 5.4136 10.9506 5.39718C10.8348 5.43001 10.686 5.43001 10.6033 5.50388C10.1733 5.865 9.73509 6.22612 9.33821 6.62006C8.90825 7.03863 8.51136 7.49824 8.11448 7.94143C7.2959 8.86064 6.64269 9.88655 6.08043 10.9781C5.89853 11.3228 5.66701 11.6429 5.49337 11.9958C5.34454 12.3077 5.25359 12.636 5.13783 12.9643C4.98073 13.4239 4.80709 13.8835 4.6748 14.3595C4.59211 14.6467 4.5425 14.9586 4.5425 15.2541C4.5425 15.8778 4.73268 16.1487 5.35281 16.2636C5.78277 16.3374 6.2458 16.3374 6.67576 16.2882C6.96516 16.2554 7.24629 16.0666 7.32897 15.7383C7.38685 15.4839 7.41166 15.2213 7.44473 14.9586C7.51088 14.4416 7.52741 13.9163 7.6349 13.4157C7.88296 12.242 8.10621 11.0602 8.61058 9.9522C9.00747 9.08224 9.38782 8.20406 9.80951 7.3423C9.99142 6.96477 10.2643 6.62827 10.4958 6.27536C10.6694 6.00452 10.8513 5.73368 11.0332 5.46284L11.025 5.45463Z" fill="#D9960A"/>
<path d="M2.00408 21.4752C2.56634 21.4752 3.12859 21.4752 3.69085 21.4752C5.42722 21.4752 7.1636 21.4998 8.89998 21.4998C11.703 21.4916 14.4977 21.4587 17.3007 21.4505C18.8387 21.4505 20.3766 21.467 21.9145 21.508C22.7579 21.5326 23.6013 21.6065 24.4364 21.6803C24.8085 21.7132 24.9987 22.2466 24.7754 22.5913C24.5604 22.9278 24.2214 23.092 23.8576 23.1576C23.0473 23.3054 22.237 23.4121 21.4267 23.5106C20.5585 23.6172 19.682 23.6911 18.8139 23.8142C18.3674 23.8799 18.1193 24.1753 18.111 24.5365C18.111 24.9304 18.4252 25.2587 18.8304 25.2423C19.2107 25.2259 19.5911 25.1848 19.9714 25.1274C20.8892 24.9879 21.8153 24.8812 22.7083 24.6678C23.5682 24.4708 24.3951 24.1589 25.2385 23.9045C27.0658 23.3546 28.8848 22.7965 30.7122 22.2548C31.291 22.0825 31.8946 22.0497 32.4899 22.2384C32.7462 22.3205 33.0273 22.6078 32.9281 22.7719C32.8289 22.936 32.6222 23.0592 32.4403 23.1576C32.1343 23.3218 31.8119 23.4531 31.4894 23.5844C31.291 23.6665 31.0677 23.6829 30.8941 23.7814C30.307 24.1015 29.6538 24.2328 29.0585 24.5036C28.5541 24.7334 28.0663 24.9879 27.5619 25.2259C27.4048 25.2997 27.2312 25.3161 27.0741 25.3818C26.3795 25.6609 25.6767 25.9399 24.9904 26.2272C24.5439 26.4159 24.1057 26.6293 23.6592 26.8181C23.4607 26.9001 23.254 26.9576 23.0473 27.0315C22.6339 27.1792 22.2122 27.2941 21.8236 27.4829C21.1869 27.7947 20.5172 28.0245 19.8143 28.1066C19.2025 28.1805 18.5823 28.1805 17.9705 28.1805C17.6315 28.1805 17.2925 28.1148 16.9452 28.0738C16.879 28.0738 16.8129 28.0738 16.7385 28.0738C15.8124 28.0327 14.8781 27.9999 13.952 27.9589C13.3319 27.9261 12.7035 27.8768 12.0833 27.844C11.3557 27.8029 10.6198 27.7291 9.89219 27.7455C9.27206 27.7619 8.66019 27.8768 8.04832 27.9507C7.89949 27.9671 7.75066 27.9999 7.60183 28.0163C6.91555 28.0902 6.31195 28.4021 5.69181 28.6565C5.50991 28.7304 5.34454 28.8371 5.17917 28.9437C4.99726 29.0587 4.86497 28.9848 4.76575 28.8371C4.47635 28.4021 4.18695 27.9671 3.9141 27.5239C3.72392 27.212 3.54202 26.9001 3.36011 26.5801C3.3105 26.498 3.32704 26.3831 3.29396 26.2846C3.09552 25.7511 2.87227 25.2341 2.69036 24.6924C2.58287 24.3641 2.52499 24.0194 2.44231 23.6829C2.38443 23.4449 2.31828 23.2151 2.26867 22.9689C2.17772 22.4929 2.09503 22.0086 2.00408 21.4587V21.4752Z" fill="#D9960A"/>
</svg>
