<svg width="33" height="31" viewBox="0 0 33 31" fill="none" xmlns="http://www.w3.org/2000/svg">
<path d="M16.5 0C12.0145 0 11.4555 0.0203463 9.70012 0.090105C7.93749 0.17149 6.74522 0.428241 5.69321 0.811914C4.6082 1.21109 3.68409 1.74106 2.77132 2.60336C1.85236 3.46081 1.28304 4.32892 0.864296 5.34817C0.45587 6.33642 0.182554 7.45643 0.0959182 9.11223C0.0165021 10.7622 0 11.2864 0 15.5C0 19.7136 0.021659 20.2388 0.0959182 21.8878C0.182554 23.5387 0.45587 24.6636 0.864296 25.6518C1.28922 26.6711 1.85339 27.5392 2.77132 28.3966C3.68409 29.2599 4.6082 29.7947 5.69321 30.1881C6.74522 30.5669 7.94265 30.8285 9.70012 30.9099C11.4566 30.9845 12.0145 31 16.5 31C20.9855 31 21.5445 30.9797 23.2999 30.9099C25.0574 30.8285 26.2548 30.5659 27.3068 30.1881C28.3918 29.7889 29.3159 29.2589 30.2287 28.3966C31.1476 27.5392 31.717 26.6759 32.1357 25.6518C32.539 24.6636 32.8174 23.5387 32.9041 21.8878C32.9835 20.2378 33 19.7136 33 15.5C33 11.2864 32.9783 10.7613 32.9041 9.11223C32.8174 7.46128 32.5379 6.3306 32.1357 5.34817C31.7108 4.32892 31.1466 3.46081 30.2287 2.60336C29.3159 1.74009 28.397 1.20528 27.3068 0.811914C26.2548 0.428241 25.0574 0.17149 23.2999 0.090105C21.5434 0.0155019 20.9855 0 16.5 0ZM16.5 2.79035C20.905 2.79035 21.431 2.8107 23.172 2.88045C24.7778 2.95118 25.6525 3.20309 26.2331 3.41624C27.0077 3.69818 27.5492 4.03147 28.135 4.57598C28.7095 5.11564 29.0643 5.63011 29.3644 6.35773C29.5913 6.90321 29.8595 7.72481 29.9347 9.23334C30.009 10.8688 30.0307 11.3639 30.0307 15.501C30.0307 19.6381 30.009 20.1331 29.9286 21.7686C29.8419 23.2771 29.5738 24.0987 29.3479 24.6442C29.0354 25.3718 28.6868 25.8805 28.1113 26.4308C27.5306 26.9705 26.9778 27.3038 26.2094 27.5857C25.636 27.7989 24.749 28.0508 23.1369 28.1215C21.3867 28.1912 20.871 28.2116 16.4546 28.2116C12.0383 28.2116 11.5236 28.1912 9.77128 28.1157C8.16543 28.0343 7.27947 27.7824 6.69881 27.5702C5.91496 27.2766 5.37761 26.9492 4.8021 26.4085C4.22143 25.863 3.8522 25.3437 3.56754 24.6219C3.33651 24.0832 3.07248 23.25 2.98687 21.7357C2.92808 20.1109 2.90024 19.607 2.90024 15.4777C2.90024 11.3503 2.92808 10.8455 2.98687 9.2004C3.07248 7.68606 3.33651 6.85476 3.56754 6.31413C3.8522 5.57682 4.22247 5.07301 4.8021 4.52753C5.37658 3.98787 5.91496 3.63908 6.69881 3.36586C7.27947 3.15368 8.14377 2.90177 9.75581 2.8262C11.5061 2.7671 12.0218 2.74578 16.4319 2.74578L16.5 2.79035ZM16.5 7.5446C11.8165 7.5446 8.02929 11.1071 8.02929 15.5019C8.02929 19.9016 11.8217 23.4593 16.5 23.4593C21.1835 23.4593 24.9707 19.8967 24.9707 15.5019C24.9707 11.1023 21.1783 7.5446 16.5 7.5446ZM16.5 20.6689C13.4595 20.6689 10.9997 18.3582 10.9997 15.5019C10.9997 12.6457 13.4595 10.3349 16.5 10.3349C19.5405 10.3349 22.0003 12.6457 22.0003 15.5019C22.0003 18.3582 19.5405 20.6689 16.5 20.6689ZM27.2924 7.22681C27.2924 8.25672 26.4002 9.08801 25.309 9.08801C24.2127 9.08801 23.3277 8.25575 23.3277 7.22681C23.3277 6.20271 24.2188 5.36948 25.309 5.36948C26.3992 5.36948 27.2924 6.20271 27.2924 7.22681Z" fill="#D9960A"/>
</svg>
