<svg width="31" height="31" viewBox="0 0 31 31" fill="none" xmlns="http://www.w3.org/2000/svg">
<path fill-rule="evenodd" clip-rule="evenodd" d="M31 15.567C31 16.0477 30.6364 16.4406 30.1657 16.4914C29.2894 16.5792 28.292 16.6763 27.2106 16.7687C27.1407 22.0471 26.6373 27.2099 26.2878 30.1357C26.2272 30.6256 25.7611 31 25.2997 31C25.1831 31 23.962 30.9307 22.1768 30.8613C22.4192 29.1373 22.8527 25.338 22.8527 20.3878C22.8527 16.607 22.7594 13.5148 22.6662 11.4996C22.6429 10.9912 22.2141 10.5845 21.6967 10.5845C21.3658 10.5845 21.0722 10.7509 20.8951 11.0051C19.2777 13.3392 17.0311 17.4528 17.0311 22.3429C17.0311 23.0409 17.0824 23.8682 17.1243 24.4552C17.1616 24.9174 17.5205 25.2872 17.982 25.338C18.4387 25.3935 19.1052 25.4674 19.9955 25.5368C19.9955 25.5368 19.7857 28.0234 19.4408 30.7689C18.1917 30.7365 16.8447 30.7134 15.4977 30.7134C14.5422 30.7134 13.5913 30.7227 12.6731 30.7412C12.524 29.0033 12.3655 26.4612 12.2723 24.9405C13.4981 24.4321 14.0295 23.161 14.0295 20.8731C14.0295 19.052 14.1879 14.846 14.2905 12.2253C14.2998 11.9202 14.0435 11.6753 13.7358 11.6753C13.4282 11.6753 13.1952 11.9202 13.1858 12.2253C13.1066 14.1943 12.9947 17.0276 12.9574 19.1029C12.9481 19.5281 12.6079 19.8701 12.1791 19.8701C11.7503 19.8701 11.4007 19.5281 11.4054 19.1029C11.452 16.6856 11.5731 14.014 11.6617 12.2253C11.6757 11.9202 11.4147 11.6753 11.1071 11.6753C10.7994 11.6753 10.571 11.9202 10.5571 12.2253C10.4732 14.0186 10.3473 16.6763 10.3007 19.089C10.296 19.5235 9.95113 19.8701 9.51767 19.8701C9.0842 19.8701 8.72064 19.5189 8.72996 19.089C8.78123 16.6763 8.89776 14.0094 8.98632 12.2253C9.0003 11.9202 8.73929 11.6753 8.43166 11.6753C8.12404 11.6753 7.89565 11.9202 7.88167 12.2253C7.76515 14.6056 7.60201 18.502 7.60201 21.3399C7.60201 23.2396 8.42234 24.4552 9.51767 24.9498C9.56894 27.0112 9.77868 29.3361 9.92783 30.8151C7.54608 30.8983 5.82619 31 5.70035 31C5.28552 31 4.77282 30.6256 4.71222 30.1357C4.35799 27.2099 3.85927 22.0471 3.78935 16.7687C2.70801 16.6763 1.71057 16.5792 0.834311 16.4914C0.363554 16.4406 0 16.0477 0 15.567C0 15.3775 0.0559314 15.2019 0.153811 15.0586C1.61735 12.8631 3.70546 10.0576 6.32957 7.19189C9.30326 3.94722 12.5473 1.61309 14.7286 0.22648C14.9477 0.0831967 15.2134 0 15.4977 0C15.782 0 16.0477 0.0831967 16.2714 0.22648C17.6417 1.10004 19.4362 2.34799 21.3192 3.96109V1.84881C21.3192 1.42821 21.6641 1.0908 22.0836 1.0908H22.1349C22.9785 1.14627 24.0505 1.24795 25.1831 1.42359C25.5001 1.47443 25.7518 1.71478 25.8124 2.02445C26.1759 3.85478 26.6513 6.60951 26.945 9.80796C28.5204 11.7307 29.8348 13.5379 30.8462 15.0586C30.9441 15.2019 31 15.3775 31 15.567Z" fill="#D9960A"/>
</svg>
