<svg width="39" height="14" viewBox="0 0 39 14" fill="none" xmlns="http://www.w3.org/2000/svg">
<path d="M32.9868 6.11445L33.0511 5.78044C33.0302 5.89785 33.0117 6.01054 32.9963 6.11411C32.9929 6.11411 32.9898 6.11411 32.9868 6.11445Z" fill="#1D1B41"/>
<path d="M33.3367 4.34895C33.2998 4.52641 33.2498 4.76257 33.1982 5.01729L33.3268 4.34895H33.3367Z" fill="#1D1B41"/>
<path d="M35.6525 6.0048C36.3405 5.98523 37.0863 5.96533 37.8027 5.94576C38.4363 5.93598 38.8787 5.7376 38.9895 5.15225C39.0497 4.80508 38.8486 4.57701 38.4363 4.55711C38.4363 4.55711 37.2594 4.49773 35.9115 4.43835C35.9115 4.43835 36.1831 2.9603 36.3241 2.35538C36.3946 2.05781 36.2334 1.77002 35.8513 1.67084C35.4825 1.5821 34.6306 1.57198 34.3309 1.61044C34.3279 1.61078 34.3251 1.61112 34.3224 1.61146C34.0812 1.64115 33.8496 1.77981 33.7894 2.02778C33.6484 2.64282 33.5078 3.38674 33.3367 4.34895C33.2998 4.52641 33.2498 4.76257 33.1982 5.01729L33.3268 4.34895C32.8273 4.33916 32.3487 4.32904 32.009 4.33916C31.6973 4.34895 31.5465 4.50751 31.476 4.75549C31.4158 5.01358 31.3552 5.38065 31.335 5.7575C31.3152 6.04495 31.6368 6.18395 31.9587 6.16404C31.9587 6.16404 32.361 6.14414 32.9847 6.11445H32.9868L33.0511 5.78044C33.0302 5.89785 33.0117 6.01054 32.9963 6.11411L32.9953 6.11917L32.9946 6.12457C32.9697 6.23827 32.9399 6.39144 32.9081 6.57092C32.9057 6.58509 32.9029 6.5996 32.9006 6.61444C32.8722 6.78415 32.8383 6.98725 32.803 7.20553C32.7986 7.23488 32.7938 7.26424 32.789 7.29426C32.751 7.53211 32.712 7.78515 32.6761 8.0311C32.6754 8.03717 32.6744 8.04324 32.6737 8.04932C32.6272 8.39378 32.5872 8.7288 32.5622 9.01084C32.2348 10.1067 31.6997 11.0317 31.1096 11.6134C31.0815 11.6414 31.0531 11.6691 31.0244 11.695C30.6245 12.0638 30.203 12.2743 29.8065 12.2743C29.1828 12.2743 28.8106 11.9072 28.8106 10.806C28.8106 9.32191 29.1431 7.4535 29.6416 5.57464C29.6566 5.5318 29.6713 5.48355 29.6857 5.43024C30.4199 3.69443 30.8424 1.76024 30.8424 0.887104C30.8424 0.607755 30.7692 0.299053 30.4968 0.165789C30.4599 0.132051 30.4089 0.107422 30.3395 0.0935899C29.6152 -0.0450728 28.9313 -0.0251674 28.4486 0.123617C28.0158 0.252495 27.9354 0.698847 27.8752 0.936699C27.6238 2.07738 27.2214 4.10097 26.9399 5.8766C26.9389 5.88436 26.9375 5.89245 26.9365 5.90021C26.3032 6.65223 25.5807 7.17618 24.7972 7.31484C24.7264 5.93328 24.2177 5.01392 23.4222 4.49132C23.8061 3.57567 23.283 3.62021 22.6734 4.13842C22.2799 4.01258 21.8444 3.95219 21.3774 3.95219C18.0281 3.95219 15.8858 6.89818 15.8858 10.2011C15.8858 12.8792 17.3644 14 19.5269 14C22.0695 14 23.9696 12.2176 24.6751 8.95956C25.3956 8.80977 26.0165 8.47306 26.5574 7.98926C26.5574 7.98926 26.5594 7.98758 26.5625 7.98521C26.518 8.21429 26.1906 9.92885 26.1667 11.0483C26.1657 11.0908 26.1653 11.1323 26.1653 11.1731C26.1653 12.9784 26.9498 13.9801 28.7904 13.9801C29.7873 13.9801 30.6973 13.5273 31.4383 12.8546C31.4561 12.8387 31.4736 12.8225 31.491 12.806C31.5085 12.7898 31.5256 12.7733 31.543 12.7568C31.5742 12.7271 31.605 12.697 31.6354 12.6663C31.9385 12.361 32.2095 12.0192 32.4414 11.6593C32.4442 11.6539 32.4473 11.6488 32.45 11.6434C32.5735 11.4133 32.6919 11.1761 32.8051 10.9353C32.6819 11.221 32.5625 11.4659 32.4517 11.6491L32.4503 11.6512C32.4507 11.6569 32.4514 11.663 32.4517 11.6691C32.673 13.3455 33.5581 14 34.9963 14C36.3241 14 37.5913 13.1768 38.4965 11.6792C38.6775 11.3816 38.8085 11.1235 38.6977 10.9946C38.4363 10.6971 37.9334 10.5483 37.8027 10.7865C37.2091 11.8576 36.5653 12.2939 35.8715 12.2939C35.3183 12.2939 34.8756 11.9666 34.8756 11.0344C34.8756 9.67548 35.6501 6.01526 35.6501 6.01526C35.6508 6.01189 35.6515 6.00851 35.6525 6.0048ZM22.3028 8.52468C21.9611 10.717 20.9751 12.5418 19.9091 12.5418C19.1345 12.5418 18.6217 11.8873 18.6217 10.5881C18.6217 8.08845 19.5269 5.41034 21.1362 5.41034C21.3172 5.41034 21.478 5.43025 21.619 5.48962C21.635 5.49536 21.6508 5.50244 21.6665 5.51088C21.5451 5.855 21.503 6.22545 21.4883 6.59049C21.4688 7.19237 21.5611 7.94068 22.3039 8.5176C22.3039 8.51996 22.3032 8.52232 22.3028 8.52468ZM34.4582 6.06924C34.4445 6.07025 34.4284 6.07093 34.411 6.07194C34.4124 6.06722 34.413 6.06485 34.413 6.06485C34.4308 6.06452 34.4459 6.06452 34.4592 6.06452C34.5526 6.0635 34.5386 6.06553 34.4582 6.06924Z" fill="#1D1B41"/>
<path d="M32.45 11.6434C32.5735 11.4133 32.6919 11.1761 32.8051 10.9353C32.6819 11.221 32.5625 11.4659 32.4517 11.6491L32.4503 11.6512C32.4503 11.6485 32.45 11.6461 32.45 11.6434Z" fill="#1D1B41"/>
<path d="M32.803 7.20553C32.8362 6.99298 32.8694 6.79191 32.9006 6.61444C32.8722 6.78415 32.8383 6.98725 32.803 7.20553Z" fill="#1D1B41"/>
<path d="M34.4582 6.06924C34.4445 6.07025 34.4284 6.07093 34.411 6.07194C34.4124 6.06722 34.413 6.06485 34.413 6.06485C34.4308 6.06452 34.4459 6.06452 34.4592 6.06452C34.5526 6.0635 34.5386 6.06553 34.4582 6.06924Z" fill="#1D1B41"/>
<path d="M32.45 11.6434C32.5735 11.4133 32.6919 11.1761 32.8051 10.9353C32.6819 11.221 32.5625 11.4659 32.4517 11.6491L32.4503 11.6512C32.216 12.0142 31.9423 12.359 31.6354 12.6663C31.9385 12.361 32.2095 12.0192 32.4414 11.6593C32.4442 11.6539 32.4473 11.6488 32.45 11.6434Z" fill="#1D1B41"/>
<path d="M32.9946 6.11445L32.9936 6.11917H32.9857C32.8831 6.12153 32.8636 6.12052 32.9868 6.11445C32.9895 6.11445 32.9919 6.11445 32.9946 6.11445Z" fill="#1D1B41"/>
<path d="M32.9936 6.11917H32.9953L32.9946 6.12457C32.9697 6.23827 32.9399 6.39144 32.9081 6.57092C32.9057 6.58509 32.9029 6.5996 32.9006 6.61444C32.8722 6.78415 32.8383 6.98725 32.803 7.20553C32.7986 7.23488 32.7938 7.26424 32.789 7.29426C32.751 7.53211 32.712 7.78515 32.6761 8.0311C32.7579 7.43023 32.8598 6.80405 32.9392 6.38671C32.9591 6.28348 32.9772 6.19306 32.9936 6.11917Z" fill="#1D1B41"/>
<path d="M34.4582 6.06924C34.4445 6.07025 34.4284 6.07093 34.411 6.07194C34.4124 6.06722 34.413 6.06485 34.413 6.06485C34.4308 6.06452 34.4459 6.06452 34.4592 6.06452C34.5526 6.0635 34.5386 6.06553 34.4582 6.06924Z" fill="#1D1B41"/>
<path d="M28.7904 13.9801C29.7873 13.9801 30.6973 13.5273 31.4383 12.8546C30.6956 13.5331 29.7818 13.9902 28.7805 13.9902C26.9399 13.9902 26.1551 12.9882 26.1551 11.1832C26.1551 11.1377 26.1592 11.0925 26.1667 11.0483C26.1657 11.0908 26.1653 11.1323 26.1653 11.1731C26.1653 12.9784 26.9498 13.9801 28.7904 13.9801Z" fill="#1D1B41"/>
<path d="M32.5523 9.02063C32.5755 8.7622 32.6207 8.41436 32.6737 8.04932C32.6272 8.39378 32.5872 8.7288 32.5622 9.01084C32.2348 10.1067 31.6997 11.0317 31.1096 11.6134C31.696 11.0307 32.2266 10.11 32.5523 9.02063Z" fill="#1D1B41"/>
<path d="M32.9868 6.11445L33.0511 5.78044C33.0302 5.89785 33.0117 6.01054 32.9963 6.11411L32.9953 6.11917L32.9946 6.12457C32.9697 6.23827 32.9399 6.39144 32.9081 6.57092C32.9194 6.50311 32.93 6.44137 32.9392 6.38671C32.9673 6.22308 32.9847 6.12457 32.9847 6.12457L32.9857 6.11917L32.9868 6.11445Z" fill="#1D1B41"/>
<path d="M34.3125 1.61146C34.3186 1.61078 34.3248 1.61044 34.3309 1.61044C34.3279 1.61078 34.3251 1.61112 34.3224 1.61146C34.0812 1.64115 33.8496 1.77981 33.7894 2.02778C33.6484 2.64282 33.5078 3.38674 33.3367 4.34895C33.2998 4.52641 33.2498 4.76257 33.1982 5.01729L33.3268 4.34895C33.332 4.32027 33.6395 2.63776 33.7794 2.02778C33.8397 1.77981 34.0709 1.64115 34.3125 1.61146Z" fill="#1D1B41"/>
<path d="M34.4592 6.06452L34.4582 6.06924C34.4445 6.07025 34.4284 6.07093 34.411 6.07194C34.4124 6.06722 34.413 6.06485 34.413 6.06485C34.4308 6.06452 34.4459 6.06452 34.4592 6.06452Z" fill="#1D1B41"/>
<path d="M14.646 0.0186918C14.2033 0.0186918 13.8009 0.0385972 13.61 0.0585025C13.2176 0.0983132 13.0869 0.465044 13.1171 0.822328C13.5293 6.02977 12.3627 12.0901 11.0452 12.0901C10.0596 12.0901 9.78793 9.2632 9.78793 6.74366C9.78793 5.25582 9.87859 3.81758 9.9087 2.5578C9.91862 2.09155 9.7479 2.00248 9.40579 1.96267C8.88269 1.90329 8.51047 1.90329 7.98772 2.01226C7.59532 2.10167 7.49473 2.4188 7.08248 3.39113C5.01063 8.25141 3.00892 12.1596 3.00892 12.1596C2.4759 8.24162 3.15979 4.44274 3.73318 1.67522C3.81357 1.29837 3.63259 1.0703 3.31066 1.0703C2.70717 1.08009 1.79201 1.09999 1.37942 1.36787C0.987018 1.61584 0.846409 1.88372 0.735563 2.43905C0.0917024 5.6131 -0.320546 9.59046 0.323314 12.6751C0.464266 13.3398 0.615139 13.4983 0.906621 13.667C1.18818 13.8455 2.41535 13.9943 2.88815 13.9943C3.43143 13.9943 3.92408 13.8553 4.3264 13.1609C5.19127 11.693 5.89534 10.2251 7.20291 7.39818C7.3336 11.078 7.86661 13.9646 10.492 13.9646C13.972 13.9646 16.2153 5.4046 16.2153 1.27813C16.2153 0.196828 15.6617 0.0186918 14.646 0.0186918Z" fill="#1D1B41"/>
</svg>
