<?xml version="1.0" encoding="utf-8"?>
<!-- Generator: Adobe Illustrator 27.5.0, SVG Export Plug-In . SVG Version: 6.00 Build 0)  -->
<svg version="1.1" id="Layer_1" xmlns="http://www.w3.org/2000/svg" xmlns:xlink="http://www.w3.org/1999/xlink" x="0px" y="0px"
	 viewBox="0 0 1158.2 415.2" style="enable-background:new 0 0 1158.2 415.2;" xml:space="preserve">
<style type="text/css">
	.st0{fill:#FFFFFF;stroke:#FFFFFF;stroke-width:0.25;stroke-miterlimit:10;}
	.st1{fill:#FFFFFF;}
	.st2{fill:#D9960A;}
	.st3{fill:#0A1F11;}
	.st4{fill-rule:evenodd;clip-rule:evenodd;fill:#D9960A;}
</style>
<path class="st0" d="M889.7,178.5c-3.6-3.3-7.4-6.3-11.5-8.9h-0.1c0,0-0.1-0.2-0.2-0.2c-0.2-0.1-0.4-0.2-0.5-0.3
	c-9.4-6.2-22.8-12.6-40.9-16c-1.5-0.3-3.1-0.6-4.6-0.8c-55.2-4.4-110.5-8.8-165.7-13.2l-52.6-42.1L574.4,118l-17.5,30
	c-2.9,8.1-12.4,36-11.8,72.5v2.2c0.4,16,2.9,33.5,8.6,51.8c0.3,1.1,0.6,2.2,1.1,3.3c2.4,7.1,5.3,14.1,8.5,20.9
	c0.7,1.5,1.5,3,2.3,4.5c1.8,3.6,3.8,7.1,5.8,10.6c0.5,0.8,1,1.7,1.5,2.5c0.6,0.9,1.1,1.7,1.6,2.6c0.5,0.8,1.1,1.6,1.6,2.4
	c0.9,1.3,1.8,2.6,2.6,3.9c0.8,1.2,1.7,2.3,2.5,3.4c0.4-0.1,0.9-0.3,1.3-0.5c0.3-4.4,0.7-8.9,0.7-13.3V170.6
	c-0.1-3.6-1.5-5.6-5.6-5.4c-3.8,0.3-7.8,0.5-11.6-0.2c-1.9-0.3-3.4-2.5-5-3.8c1.5-1.3,2.9-3.5,4.6-3.8c10.3-2,18.7-7.1,24.6-15.6
	c4.7-6.7,8.3-14.3,12.4-21.5c1.3-2.2,2.2-4.8,5.9-3c0,4.4-0.1,8.9,0,13.5c0.2,7.5,0.7,15.1,0.9,22.6c0.1,2.8,1.2,3.9,3.9,3.8
	c9.9-0.3,19.8,1,29.5-2.3c3-1,4.2,0.4,4.2,3.4c0,5.1-4.3,6.3-7.5,6.7c-10.1,1-20.3,1.2-30.9,1.7v5.2c0.3,51.2,0.5,102.4,0.8,153.6
	c0,5.2,0.4,10.4,1.1,15.5c0.4,2.9,1.7,5.7,3,8.4c5.9,12.1,20.9,7.9,27.6-0.5c2.7-3.4,5.2-6.9,7.9-10.3c0.8-0.9,2.1-1.5,3.2-2.3
	c0.5,0.5,1,1,1.5,1.5c-4.2,15.6-14.2,26.5-28.9,33.7c4.9,3.5,9.9,6.7,15.1,9.7c18.2,8.3,115.4,50.7,206.5,9.9
	c2.1-0.9,4.1-1.9,6.1-2.9c2.1-1,4-2.1,6.1-3.2c4.6-2.5,9-5.1,13.4-7.9c0.1-0.1,0.2-0.1,0.3-0.2c0.3-0.2,0.5-0.4,0.8-0.6
	c6.7-4.3,13-9.1,19.1-14.3l0.6-0.5c5.8-5,11.3-10.3,16.5-15.8c0-0.1,0.1-0.1,0.1-0.2c27.8-64.5,19.2-131.5-19.8-167
	C889.9,178.5,889.7,178.5,889.7,178.5z M684.4,290.6c0.8,9.4,2,18.9,4.2,28c4.1,16.3,9.6,32,26.1,40.5c10,5.1,26.8,3.9,33.7-7.6
	c5.4-8.9,9.5-18.7,14-28.2c1-2.1,1.5-4.5,2.8-6.4c0.6-1,2.2-1.6,3.9-2.7c1.2,9.8-2.3,17.6-5.6,25c-3.6,8.1-7.9,15.8-13,23
	c-7.5,10.5-18.8,15.8-31.4,16.3c-10.1,0.4-19.3-3.9-27.4-10.3c-17.2-13.6-25.6-32.4-31.5-52.6c-6-20.9-6.3-42.4-4.9-63.6
	c1.7-27.3,8.3-53.5,24-76.4c7.7-11.3,17-20.9,31.4-23.7c17.1-3.3,30.7,2.6,41.6,15.2c11.3,13.1,15.7,29.1,17.2,46
	c0.3,3.3,0.9,6.6,1.6,11.7c-12.2,0.4-23.6,0.8-34.9,1c-17.1,0.2-34.2,0-51.5,0c-0.5,6.2-1,11.1-1.4,16c-0.4,4-1.1,8-0.9,11.9
	C683,266.3,683.4,278.5,684.4,290.6L684.4,290.6L684.4,290.6z"/>
<path class="st1" d="M651.6,337.7c-4.2,15.6-14.3,26.5-29.1,33.7c-9.1-2.8-17.5-7.6-24.6-14c-8.6-7.9-14.8-18-18.1-29.2
	c0.3-4.4,0.7-8.9,0.7-13.3c0.1-46.7,0.1-93.5,0.1-140.2v-4.1c-0.1-3.6-1.5-5.6-5.6-5.4c-3.9,0.3-7.9,0.5-11.7-0.2
	c-1.9-0.3-3.4-2.5-5.1-3.8c1.5-1.3,2.9-3.5,4.6-3.8c10.4-2,18.9-7.1,24.8-15.6c4.7-6.7,8.4-14.3,12.5-21.5c1.3-2.2,2.2-4.8,6-3
	c0,4.4-0.1,8.9,0,13.5c0.2,7.5,0.7,15.1,0.9,22.6c0.1,2.8,1.2,3.9,4,3.8c9.9-0.3,20,1,29.7-2.3c3-1.1,4.3,0.4,4.3,3.4
	c0.1,5.1-4.3,6.3-7.5,6.7c-10.2,1-20.5,1.2-31.2,1.7v5.2c0.3,51.2,0.5,102.4,0.8,153.6c0.1,5.2,0.4,10.4,1.1,15.5
	c0.4,2.9,1.7,5.7,3,8.4c6,12.1,21,7.9,27.8-0.5c2.7-3.4,5.2-6.9,8-10.3c0.8-0.9,2.1-1.5,3.2-2.3
	C650.6,336.7,651.1,337.2,651.6,337.7L651.6,337.7z M764.1,317.1c-1.2,1.9-1.8,4.3-2.8,6.4c-4.6,9.4-8.7,19.2-14.2,28.1
	c-7,11.5-24,12.7-34,7.6c-16.6-8.5-22.2-24.3-26.3-40.5c-2.3-9.1-3.4-18.6-4.3-28c-1.1-12.2-1.5-24.4-1.9-36.6
	c-0.2-3.9,0.5-7.9,0.9-11.9c0.4-4.9,0.9-9.8,1.4-16c17.4,0,34.7,0.2,51.9,0c11.4-0.2,22.8-0.6,35.1-1c-0.7-5.2-1.4-8.4-1.6-11.7
	c-1.4-16.9-5.9-32.9-17.3-46c-11-12.6-24.7-18.5-41.9-15.2c-14.6,2.8-23.9,12.5-31.7,23.7c-15.9,22.9-22.5,49.1-24.2,76.4
	c-1.3,21.3-1.1,42.7,5,63.6c6,20.3,14.5,39,31.8,52.6c8.1,6.4,17.4,10.7,27.6,10.3c12.7-0.5,24.1-5.8,31.6-16.3
	c5.1-7.2,9.5-15,13.1-23c3.3-7.5,6.8-15.2,5.6-25.1C766.3,315.5,764.7,316,764.1,317.1z M689.4,190.6c2.3-7.7,5.8-15.2,9.5-22.4
	c3.8-7.3,10.9-10,18.7-9.7c10.1,0.5,17.2,6.2,19.7,15.9c2.2,8.7,3.2,17.8,4.5,26.8c0.7,5.2,1,10.5,1.5,16.3h-59.4
	C685.7,208.2,686.9,199.2,689.4,190.6z"/>
<path class="st2" d="M401,339.2c-7.5,3.2-14.6,7.4-22.3,9.1c-18.1,4.2-34-1.7-47.2-13.8c-12.4-11.3-19-25.9-21.4-42.6
	c-2-14.1-1.7-28,3.3-41.3c8.3-21.6,25.8-41.8,55.5-41.8c12.9,0,24.6,1.9,32.8,13.2c0.6-0.7,1-0.9,1-1.2c-0.2-21.3-0.3-42.5-0.6-63.7
	c0-2.8-0.6-5.6-1.2-8.4c-1-4.6-4-6.4-8.6-5.6c-2.6,0.4-5.4,1.2-7.9,0.9c-1.7-0.2-3.1-2.2-4.7-3.4c1.6-0.8,3.6-2.6,4.9-2.3
	c8.3,1.9,15.9-0.9,23.5-3.2c4.4-1.3,8.7-2.9,13-4.4c3.5-1.3,6.4-1.5,6.5,3.5c0.1,3,0.9,5.9,0.9,8.9c0,60.2,0,120.4,0.1,180.6
	c0,3.2,0.3,6.4,1.2,9.4c0.4,1.4,2.5,3,4.1,3.2c3.5,0.5,7.2-0.1,10.7,0.4c1.4,0.2,2.7,1.8,4.1,2.8c-1.4,0.7-2.8,1.8-4.2,1.9
	c-6.9,0.5-13.9,0.2-20.7,1.3c-5.2,0.8-10.3,3.1-15.2,5.3c-6.3,2.8-7.4,2.3-7.4-4.5L401,339.2C401,339.1,401,339.2,401,339.2z
	 M402,278.1h0.8c-0.6-13.1-1.2-26.2-1.9-39.3c-0.6-10.7-8.2-20.6-17.9-23.4c-11-3.2-25.3,1.3-31.6,9.9c-9,12.5-12.9,26.7-13.7,41.7
	c-1,17.8,0.8,35.5,6.8,52.6c3.1,8.7,8,15.8,16.2,20.6c15.8,9.3,36.2-2.2,39.8-17.3c1.2-4.8,1.3-10,1.4-15
	C402.2,298,402,288.1,402,278.1L402,278.1L402,278.1z M248.9,332.6c-5.3,4-9.6,8.2-14.8,10.8c-15.1,7.7-31.2,9.6-46.2,1.4
	c-9.2-5.1-17.3-12.3-16.9-25.5c0.9-24.6,0.3-49.3,0.2-73.9c0-7.9-0.4-15.8-1-23.6c-0.1-1.3-1.8-3.4-3-3.6c-4.1-0.7-8.4-0.7-12.6-1.2
	c-2-0.2-3.8-0.9-5.7-1.4l0.3-1.9H197v5.2c0,30.4-0.2,60.7,0,91.1c0,5.4,1.1,11,2.5,16.2c3.1,11.5,12.9,15.9,23.9,14.2
	c15.7-2.4,25-12.7,25.4-28.7c0.6-25.3,0.9-50.5,1.1-75.7c0-4.7-0.7-9.4-1-14.1c-0.2-2.9-1.5-4-4.6-4c-4.3,0-8.7-0.5-13-1.1
	c-1.4-0.2-2.8-1.3-3.9-2.8c16.2-3.3,32.3-0.9,48.6-2.1c0.1,2.3,0.3,3.9,0.3,5.5v89c0,5.1,0.3,10.3,0.2,15.4
	c0,8.4,3.7,10.7,11.6,11.4c3.7,0.3,7.5-0.1,11.2,0.1c1.2,0,2.4,1,3.6,1.6c-1.1,0.8-2,2.1-3.2,2.5c-1.7,0.6-3.6,0.9-5.4,0.9
	c-13.5-0.3-26.2,2.6-38.3,8.6c-5.8,2.9-7,2.1-7-4.5L248.9,332.6L248.9,332.6L248.9,332.6z M67.9,345.8c-5.5,0-10.9-0.1-16.4,0
	c-11.3,0.2-22.7,0.4-34.1,0.6c-3.8,0.1-7.5,0.3-11.2-0.1c-1.1-0.1-2.1-1.6-3.2-2.5c1.1-0.8,2.2-2.1,3.4-2.2c2.5-0.4,5.1-0.1,7.6-0.1
	c7.1-0.1,9-1.8,9.1-8.9c0.1-2.8,0-5.7,0-8.6c0-20.9,0.1-41.8,0-62.8c-0.1-9.9-0.5-19.8-0.7-29.7c-0.1-3.8-2-5.5-5.8-5.4
	c-4.4,0.1-8.9,0.2-13.3,0c-1.2-0.1-2.3-1.4-3.5-2.1c1.2-0.6,2.2-1.7,3.4-1.8c13.9-1.8,28-3,39.6-12.4c1-0.8,2.8-0.7,4.8-1.2v19.7
	c2.3-2.2,3.6-3.3,4.8-4.6c13.9-14.7,31.4-17.3,50.2-13.4c11.8,2.4,22.8,12.2,23.6,29.3c0.8,17.3,1,34.6,1.2,52
	c0.2,13.8,0,27.7,0.1,41.5c0,7.8,0.7,8.5,8.9,8.6c2.5,0,5.1-0.2,7.6,0.2c0.8,0.1,1.5,1.4,2.3,2.2c-0.7,0.6-1.4,1.6-2.2,1.7
	c-4.4,0.2-9,0.1-13.5,0.2c-14.3,0.3-28.5,0.7-42.7,0.8c-2.5,0-7,1.8-7.2-2.3c-0.2-4.2,4.4-2.6,6.9-2.6c14.2-0.2,14.2-0.1,14.2-14.3
	c0-26.7,0-53.3-0.1-80c0-4.3-0.3-8.8-1.5-12.9c-4.2-14.7-14.4-18.5-29.9-15.6c-8.4,1.5-14.7,6.9-19.2,14c-1.4,2.2-2.1,5-2.1,7.6
	C49,271.8,49.1,303,49,334.2c0,4.8,2.1,7.3,6.9,7.4c2.9,0.1,5.8-0.1,8.6,0.3c1.4,0.2,2.8,1.2,4.2,1.9c-0.2,0.8-0.5,1.5-0.7,2.3
	C68,346.1,67.9,345.8,67.9,345.8z M499.8,208.3c0.5,3.3,1.2,5.8,1.2,8.4c0.2,38.4,0.2,76.8,0.3,115.1c0,7.9,1.7,9.5,9.9,9.6
	c2.5,0,5.1-0.3,7.6,0.1c1.4,0.2,2.8,1.3,4.1,2.1c-0.2,0.7-0.3,1.5-0.5,2.2h-12.6c-11.3,0.2-22.7,0.4-34,0.6
	c-5.9,0.1-11.9,0.2-17.9,0c-1,0-1.9-1.5-2.8-2.3c1-0.9,2-2.4,3.1-2.6c3.7-0.6,7.4-1.1,11-1c4.6,0,6.3-2,6.3-6.5
	c-0.2-9.3,0-18.6,0-27.8v-49.1c0-9.5,0-19-0.1-28.5c0-2.9-1.2-4.8-4.6-4.6c-3.9,0.2-7.8,0.3-11.7,0c-1.4-0.1-2.6-1.4-4-2.1
	c1.3-0.9,2.5-2.5,3.9-2.7c5.8-0.9,11.9-0.8,17.5-2.3c6-1.5,11.6-4.4,17.4-6.7C495.7,209.6,497.4,209,499.8,208.3
	C499.8,208.3,499.8,208.3,499.8,208.3z M486.1,140c9.6,0,13.9,4.1,13.8,13.3c-0.1,8.4-5.9,14.1-14.6,14.1c-7.2,0-13.8-6.7-13.9-14
	C471.4,144.8,476.6,140,486.1,140L486.1,140z"/>
<path class="st3" d="M867,371.5c-0.5-0.6-1-1.1-1.5-1.7c-5.6-7.1-6.9-16.1-7.7-25.8c-1.2,2.7-1.9,4.6-2.7,6.5
	c-4.4,9.6-10.3,18.2-19.3,24.3c-9.4,6.3-23.3,7.3-30.5,1.8c-7.7-5.8-12.8-13.8-15.4-23.1c-4.2-14.8-2.9-29.7,2.3-43.7
	c9.1-24.8,25.9-42.7,51.8-51.1c4.8-1.5,11.2-2,13.6-5.4c2.5-3.4,1.2-9.7,1.1-14.7c-0.2-20.6,1.3-41.3-4.8-61.3
	c-4.8-15.9-15.4-20.3-29.7-15.4c-11,3.7-20.2,21.3-18,32.3c0.3,1.4,2.3,3.4,3.5,3.4c5,0.2,7.2,3.4,8.7,7.3c3.3,8.6,3,17.4-0.7,25.7
	c-2,4.5-5.7,7.8-11.4,7.9c-5.7,0.1-9.2-2.5-12-7.4c-5.9-10.5-5.3-21.5-3.6-32.7c1.9-12.6,7.5-23.5,16-32.9
	c7.3-7.9,16.1-12.6,27.2-12.2c0.6,0.1,1.2-0.1,1.8-0.2h0.1c0.5-0.2,1.1-0.3,1.6-0.4c-5-2.3-9.9-4.2-14.9-5.3
	c-14-2.9-28.1-6-42.2-8.2c-16.5-2.5-33.2-4.3-49.8-6.1c-8.2-0.9-16.5-0.7-24.5-2.3c-14.9-3.1-29.5-7.2-42.2-16.2
	c-11.3-8-19.7-18.2-23.8-31.3c-5.6-17.8-7.6-36.1-7.3-54.7c0-2.6-0.8-5.3-1.3-8.4c-1.7,0.8-2.8,1-3.4,1.7
	c-10.3,10.2-21.6,19.5-30.7,30.7c-17.7,21.8-31.7,46-42.1,72.2c-5.4,13.5-9.6,27.4-11.3,41.8c-0.8,7.3-1.9,14.6-2.1,21.9
	c-0.3,10.7-0.2,21.3,0.3,32c0,0.6,0,1.3,0.1,1.9v0.2c0.1,2.4,0.4,4.8,0.7,7.2c0.3,2.6,0.7,5.3,1.2,7.9c0.3,2.2,0.7,4.3,1,6.4
	c1.3,8.5,2.3,17,4.4,25.4c0.4,1.7,0.9,3.3,1.4,4.9c0.3,1.1,0.6,2.2,1.1,3.3c2.3,7.2,5.2,14.2,8.6,20.9c0.7,1.5,1.5,3,2.3,4.5
	c1.9,3.6,3.8,7.1,5.9,10.6c0.5,0.8,1,1.7,1.5,2.5c0.6,0.9,1.1,1.7,1.6,2.6c0.5,0.8,1.1,1.6,1.6,2.4c0.9,1.3,1.8,2.6,2.6,3.9
	c0.8,1.2,1.6,2.3,2.4,3.5l0.1-0.1c0.5-0.1,0.9-0.3,1.3-0.5c0.3-4.4,0.7-8.9,0.7-13.3c0.1-46.7,0.1-93.5,0.1-140.2v-4.1
	c-0.1-3.6-1.5-5.6-5.6-5.4c-3.9,0.3-7.9,0.5-11.7-0.2c-1.9-0.3-3.4-2.5-5.1-3.8c1.5-1.3,2.9-3.5,4.6-3.8c10.4-2,18.9-7.1,24.8-15.6
	c4.7-6.7,8.4-14.3,12.5-21.5c1.3-2.2,2.2-4.8,6-3c0,4.4-0.1,8.9,0,13.5c0.2,7.5,0.7,15,0.9,22.6c0.1,2.8,1.2,3.9,4,3.8
	c9.9-0.3,20,1,29.7-2.3c3-1.1,4.3,0.4,4.3,3.4c0.1,5.1-4.3,6.3-7.5,6.7c-10.2,1-20.5,1.2-31.2,1.7v5.2c0.3,51.2,0.5,102.4,0.8,153.6
	c0.1,5.2,0.4,10.4,1.1,15.5c0.4,2.9,1.7,5.7,3,8.4c6,12.1,21,7.9,27.8-0.5c2.7-3.4,5.2-6.9,8-10.3c0.8-0.9,2.1-1.5,3.2-2.3
	c0.5,0.5,1,1,1.5,1.5c-4.2,15.6-14.3,26.5-29.1,33.7c-0.7,0.4-1.5,0.7-2.3,1c17.3,13.2,35.2,24.4,55.5,31.7
	c20.7,7.5,42.1,10.5,63.9,11c16.6,0.4,33.1-2.3,49.4-5.6c19.8-4.1,38.7-10.2,56.8-18.6c2.1-0.9,4.1-1.9,6.2-2.9
	c2.1-1,4.1-2.1,6.1-3.2c3.5-1.8,6.9-3.7,10.4-5.8c1-0.6,2-1.3,3.1-2.1c0.1,0,0.2-0.1,0.3-0.2c0.3-0.2,0.5-0.4,0.8-0.6
	C870.6,374.9,868.6,373.3,867,371.5L867,371.5L867,371.5z M682.6,290.6c0.8,9.4,2,18.9,4.3,28c4.2,16.3,9.7,32,26.3,40.5
	c10,5.1,27,3.9,34-7.6c5.5-8.9,9.5-18.7,14.2-28.2c1-2.1,1.5-4.5,2.8-6.4c0.6-1,2.2-1.6,4-2.7c1.2,9.8-2.3,17.6-5.6,25
	c-3.6,8-8,15.8-13.1,23c-7.6,10.5-18.9,15.8-31.6,16.3c-10.2,0.4-19.5-3.9-27.6-10.3c-17.3-13.6-25.8-32.4-31.8-52.6
	c-6.1-20.9-6.3-42.4-5-63.6c1.7-27.3,8.3-53.5,24.2-76.4c7.8-11.3,17.1-20.9,31.7-23.7c17.2-3.3,30.9,2.6,41.9,15.2
	c11.4,13.1,15.9,29.1,17.3,46c0.3,3.3,0.9,6.6,1.6,11.7c-12.4,0.4-23.7,0.8-35.1,1c-17.2,0.2-34.4,0-51.9,0
	c-0.5,6.2-1,11.1-1.4,16.1c-0.4,4-1.1,8-0.9,11.9C681.1,266.3,681.5,278.5,682.6,290.6z M877.6,169.5c0.8,0.2,1.7,0.2,2.3,0.6
	c21.8,15.3,40.5,33.4,50.7,58.5c8.5,20.8,9.4,42.3,4.2,64.3c-5.9,24.9-17.1,46.6-36.1,64c-2.3,2.2-5,3.9-8.6,6.6
	c-1.5-2.7-3.8-5.2-4.2-7.9c-1.1-8.1-1.8-16.3-1.9-24.4c-0.1-18.7,0.3-37.4,0.4-56.2c0.1-22.8,0.5-45.7,0.1-68.5
	C884.3,193.9,883.4,181.1,877.6,169.5L877.6,169.5L877.6,169.5z"/>
<path class="st3" d="M858,262.6c0,18.7,0.3,36.6-0.1,54.5c-0.2,9.3-1.5,18.5-6.5,26.8c-4.3,7.3-9.6,13.5-18.6,13.3
	c-3.8-0.1-8.8-2.7-11-5.8c-3.7-5.1-6.3-11.3-8.1-17.4c-3.4-11.9-0.8-23.7,2.8-35.3c4.6-14.4,15.1-23.6,28.3-30.2
	C848.9,266.6,853.1,264.8,858,262.6C857.9,262.6,858,262.6,858,262.6z M877.6,169.4c0,0-0.4-0.3-0.6-0.4c0.2-0.1,0.4-0.2,0.6-0.2
	L877.6,169.4L877.6,169.4L877.6,169.4z M743.2,217.5h-59.4c1.9-9.3,3-18.4,5.5-27c2.3-7.7,5.8-15.2,9.5-22.4
	c3.8-7.3,10.9-10,18.7-9.7c10.1,0.5,17.2,6.2,19.7,15.9c2.2,8.7,3.2,17.8,4.5,26.8C742.5,206.4,742.7,211.8,743.2,217.5z"/>
<path class="st4" d="M979.2,9.4c3.6,1.6,8.5-1.7,8.5-4.5v0c0-2.8-5-6-8.6-4.4c-2.2,0.9-3,3.2-3.2,3.9l0,0.1l0,0
	C976,4.8,976.5,8.2,979.2,9.4z M996.2,189.3c6.9,7.4,13.7,14.8,20.4,22.5c6.5,18.6-22.6,43.9-38.2,25.9
	c-12.2-12.9-24.1-26.1-36.1-39.3l0,0c-9.7-10.7-19.4-21.4-29.2-32c-11.5-4.9-26,4.1-32.2,14.5c-3.5,17.1-26.7-6.9,19.4-28.7
	c-18.2-23.7-22.5-21.8-26.5-20c-2.5,1.1-4.9,2.1-10.5-3c-1.8-4.6,1.7-6.7,5.5-8.1c8.5-3.3,17.3-6.3,26.1-9.4
	c29.9-10.3,60-20.8,83-43c16.3-29.6-58.5-0.9-79.1,7c-1.7,0.6-3,1.1-3.8,1.5c5.7,5.6,21.9,21.3,6.2,20.3c-8.8-3.2-19.7-17.2-31-31.7
	c-15.3-19.7-31.6-40.6-45-37.7c-3.5,0.7-7.2,3.6-10.7,9l0.2-0.1h0c0.4-0.2,0.9-0.6,1.6-0.9c0.8-0.5,7.9-3.8,12.9-1l0.1,0
	c0.5,0.3,1.6,1,2.3,2.2c2.3,4.1-0.9,6.4-4.6,7.7c-10.6,2.5,3.5,16.1,18.9,30.8c15,14.3,31.1,29.9,27,37.5l-1.3,0.7
	c-0.8,0.4-1.7,0.9-2.6,1.5c-3-1.3-5.5-4.2-7.9-7c-3.6-4.3-7.1-8.4-12.4-6.8c-1.3,1-2.8,1.9-4.3,2.8c-4.1,2.4-8.2,4.7-6.6,10.6
	c1,3.5-1.9,5.7-5.6,6.1c-21.8-6.1,3.1-24.8,13-30.6c-3.4-3.8-7.5-8.1-11.9-12.5c-23.6-24-53.5-54.5,0.6-62
	c13.9,4.5,23.8,17,33.6,29.4c6.2,7.8,12.3,15.6,19.5,21.4c5.1-1.7,13.1-4.3,22.9-7.7c5.8-2,10.7-3.7,14.8-5.1h0
	c17.9-6.2,22.9-7.9,31.2-8.7h0c1.9-0.2,33.3-2.6,37.7,8.9c2.6,6.7-5.1,15.3-12.4,23.4c-9.1,9.9-25.4,24.6-52.5,36l1.1,1.2
	c1.9,2.1,4.3,4.6,7.3,7.8c53.7-60.7,106.7-4.5,29.2,32.7C975.6,167,985.9,178.1,996.2,189.3L996.2,189.3z M972.1,139.8
	c11-8.3,23.1-17.3,20.3-32.3c-21.8-3.1-34.8,9.7-47.7,23.8c1.6,1.5,3.1,3.3,4.6,5.1c5.6,6.7,11.2,13.4,20.2,5.4L972.1,139.8z
	 M897.8,131.4c3.3,3.5,6.4,6.9,9.2,10.4c6,10.8,15.9,9.4,26.2,8c3.1-0.4,6.1-0.9,9.2-1l0.2-0.9l0.2-0.9c-5.5-5.2-9.4-10.3-12.7-14.6
	c-9.1-11.9-13.8-18.1-37-6.1C894.6,128.1,896.2,129.8,897.8,131.4L897.8,131.4z M1003.7,225.1L1003.7,225.1L1003.7,225.1l0.9-0.8
	c4.2-7.2-9.1-20.2-20.6-31.3c-5.9-5.7-11.2-10.9-13.5-14.7c-14.8-17.9-18-20.9-42.4-15.3c10,13,20.9,24.6,31.8,36.3
	c9,9.6,18,19.3,26.5,29.6C991.8,236.4,998.8,229.7,1003.7,225.1L1003.7,225.1z M1051.8,285.6c0.1,3.9-0.4,7.8-1.5,11.5
	c-6.1,19.4-28.9,27.5-50.3,34.8c-16.2,5.6-54.9,18.7-67.1,3.8c-1.9-2.3-2.5-4.8-2.9-6.4c-0.1-0.6-0.3-1-0.4-1.3
	c-3.8-8.2-7.7-16.5-11.5-24.7c-9.4-20.1-18.9-40.3-27.7-60.6c-2.9-5.7-5.6-11.4-8.2-17.2c-2.9-6.5-5.6-13.1-8.1-19.8
	c-3.6-9.4-6.3-16.2-12-25c-4.9-7.7-13.6-19-16.1-17.7c-3.7,1.9,8.5,31.9,11.5,39.2c6.4,15.6,13.7,30.7,22.1,45.3
	c4.5,10,9.3,19.9,14,29.9c7.6,16,15.3,32,22.1,48.3c1,2,1.8,4.1,2.5,6.3c1.9,5.5,3.9,11,9.7,13.4c45.8,11.9,111-3.1,135.4-46.4
	c-3-37.9-12.3-76.2-21.5-114.4c-6-24.8-12-49.6-16.3-74.3c-2.4-6.3-14.9-5.1-10.3,3.2c2.1,7,3.4,14.3,4.6,21.6v0
	c0.8,4.5,1.5,8.9,2.5,13.3c5.1,25,10.4,50,15.7,75C1042.6,244.1,1047.1,264.9,1051.8,285.6L1051.8,285.6z M1140,133.2
	c-5,0.2-10,0.8-15,1.7c0.5,6.4,0.8,12.8,0.8,19.2c0,10.4-0.6,14.4-3.3,15.8c-2,1-4.3,0.2-4.7,0l-0.1,0c-1.5-0.6-4.1-2.7-5.2-14.8
	c-0.6-6.6-0.5-13.3,0.3-19.9c-6-0.1-12,0-18,0.2c-8.6,0.2-12.7,0.3-14.8-2.5c-0.8-1.2-1.5-3-1-4.5c1.9-6.8,24.6-6,32.2-5.6
	c1.1-3.7,0.5-9.7-0.2-16c-1.2-11-2.5-22.9,5.8-24.4c5.9,3.3,6,13.6,6.1,23.7c0,6.1,0.1,12.1,1.4,16.6c3.6,0.5,8-0.2,12.5-1
	c8.7-1.5,17.8-3,21.2,4.6c0.2,1.1,0.4,2.6-0.4,3.9c-1.5,2.6-5.6,2.7-11.8,2.8C1144,133.1,1142.1,133.2,1140,133.2L1140,133.2
	L1140,133.2z M964.5,280.2c7.7,3.7,11.5,10.8,12.7,13.6c0.2,0.6,0.4,1.2,0.6,1.9c0.2,0.6,0.4,1.2,0.6,1.8
	c4.4,26.8-31.6,42.3-46.5,18.5C916.3,290.1,944.7,270.7,964.5,280.2L964.5,280.2z M953.7,316.3c-18-0.4-19.7-27-0.1-26.9
	C971.3,288.1,969.6,316.8,953.7,316.3z M820.9,354.9c-1.6,3.6-7.2,5.7-14.1,4.6l-12.9-0.7c0.1,7.4,0.4,13.3,0.6,17.2l0,0.9
	c0.3,5.4,0.5,9.1-1.8,10.5c-1.8,1.1-4.1,0.2-4.7,0l-0.1,0c-3.1-1.2-5-4.9-4.7-9.2v-18.5c-3.9,0-7.2-0.1-9.8-0.3
	c-5.6-0.3-7.4-0.6-9.4-1.7c-1.2-0.6-4.4-2.2-4.7-5.1l0-0.2c-0.1-0.7,0-1.4,0.3-2.1c0.5-1.1,2-2.9,10.3-3.7c4.3-0.4,8.6-0.4,12.8,0
	c0.3-3.4,0.5-8.4,0-14.3c-0.1-1.8-0.3-3.7-0.5-5.5c-0.5-4.6-0.8-7.2,1-8.9c2.3-2.2,7.3-2.2,9.4,0c1.5,1.6,1.1,3.8,0.4,7.3
	c-0.5,2.4-0.9,4.9-1.1,7.3c-0.3,4.4-0.1,8.8,0.7,13.1l0.4,0.1c1.8,0.2,4.4,0.6,7.7,0.9c3.3,0.3,6.2,0.5,8.6,0.6
	c6.9,0.4,10.3,0.7,11.6,3.1C821.9,352.2,821,354.5,820.9,354.9L820.9,354.9L820.9,354.9z M945.9,220.9c0.7,1.2,1.5,2.5,2.4,3.6
	c18.4,19.8-18.2,44.8-30.3,20.3c-8.8-15.5,11-35.6,26.9-25.5C945.3,219.8,945.6,220.4,945.9,220.9L945.9,220.9z M929.3,244
	c0.8,0.8,2.5,2.5,5,2.4c2.4-0.1,3.9-1.8,4.4-2.4c3.2-3.5,3.3-9.9,0-13.9c-1-1.2-2.3-2.1-3.7-2.8c-1.4-0.1-5-0.4-7.4,1.9
	C923.7,232.8,925.7,240.4,929.3,244L929.3,244L929.3,244z M1012.5,261.6c-24.7-1.3-23.7,36.2-0.3,35.7
	C1035.7,298.1,1036.9,260.5,1012.5,261.6z M1011.5,289.6c-12-0.9-13-20.9,0.9-20.3C1026.7,268.9,1024.9,290.3,1011.5,289.6z
	 M1014,160.2c0.2,20-30,20.4-30.9,1.1C982.2,141.3,1013.9,141.1,1014,160.2z M925.3,192.2c0.1,5.6-5.1,7.8-10.1,8.5l-0.5,0.5
	c-0.2,0.2-0.3,0.3-0.5,0.5c1.3,6.8-5.8,12.4-10.5,6.1c-1.9-3.7-4.7-5-7.9-3.5c-4.7,2.2-6.5-1.5-7.5-3.8c0.1-4.6,7.4-8,12.1-8.6
	c-4.7-11.7,10.5-17.2,10.5-3.1c0.7,0,1.4,0,2.2,0h0C917.6,188.7,923.5,188.6,925.3,192.2L925.3,192.2z M1018.8,91.4
	c1.7-0.1,2.9-2.5,3.4-3.6h0c0.8-1.6,2.7-6.6-2.6-18.7c-3.3-7.4-7.4-16.8-13-16.7c-2.4,0-5.4,1.7-6.2,4.4c-0.7,2.1,0.4,4.1,0.8,4.8
	c3.6,6.4,7,12.9,10.2,19.6l0,0C1014.6,87.5,1016.5,91.5,1018.8,91.4L1018.8,91.4z M837.5,158.5c-1.7,3.1-6.4,5.8-9.8,4.4
	c-2.5-1-3.4-3.7-3.7-4.6c-1.8-3.3-11.5-21-6.3-29.7c0.4-0.7,1.4-2.4,3-2.6c1.2-0.1,3.7,0.3,10.6,13.2
	C836.8,149.6,839.5,154.9,837.5,158.5C837.6,158.5,837.5,158.5,837.5,158.5z M1043.3,408.7c1.7,0,3.4-1.3,3.7-3
	c0.5-2.5-2.2-5-4.7-4.6c-1.4,0.2-2.6,1.3-3,2.7C1038.9,406.2,1040.9,408.7,1043.3,408.7L1043.3,408.7z M807.4,237
	c-2-0.2-3.7-2.2-3.6-4.7c0.1-0.3,1.2-2,3-2.3c2.5-0.3,5.3,2.5,4.7,4.6C811.1,236.2,809.1,237.2,807.4,237L807.4,237z M1103.6,246.4
	c3.4-0.4,6-4.7,4.7-7.1c-1.1-1.9-4.3-1.8-4.8-1.8h0c-3.7,1.1-5.4,4.3-4.6,6.4C1099.5,245.7,1101.8,246.6,1103.6,246.4L1103.6,246.4z
	 M854.2,125.2c-0.3,2.1-2,4.2-4.4,4.5c-2.8,0.3-5.4-1.9-5.7-4.6c-0.4-3.1,2.2-6.1,5.3-6C852.4,119.3,854.6,122.4,854.2,125.2z"/>
</svg>
