<svg xmlns="http://www.w3.org/2000/svg" width="30" height="30" fill="none">
  <path fill="#1D1B41" d="M26 0H4a4 4 0 0 0-4 4v22a4 4 0 0 0 4 4h22a4 4 0 0 0 4-4V4a4 4 0 0 0-4-4Z"/>
  <path fill="#fff" d="m20.6 17.7-3.7-4.2c5.7-2.8 1.8-7-2.1-2.5l-.6-.7c2-.8 3.1-2 3.8-2.7.5-.6 1.1-1.2 1-1.7-.4-.9-2.7-.7-2.9-.7-.7 0-1 .2-3.3 1l-1.7.6C9.8 5.7 8.9 3.5 7.2 3c-4.7.7-.7 3.8.8 5.6-.7.4-2.5 1.8-.9 2.3.3 0 .5-.2.4-.5-.1-.6.5-.7.8-1 .6-.2 1 .8 1.5 1l.3-.1c.6-1.2-5-4.8-3.4-5.1.3-.1.5-.3.3-.6a.4.4 0 0 0-.1-.2c-.4-.2-.9 0-1 0v.2c.2-.4.4-.6.7-.7 1.7-.4 4 4.6 5.6 5.2 1.1 0 0-1.1-.5-1.5.9-.3 7.3-3 6-.7-2.1 2.2-5.2 2.9-8 4-.2 0-.4.2-.3.6 1 1 .5-1.2 2.7 1.7-3.4 1.6-1.7 3.4-1.4 2.2.4-.8 1.5-1.5 2.3-1.1l4.8 5.3c1.1 1.4 3.3-.5 2.8-2Zm-1.8-7.8c.2 1.2-.8 1.9-1.7 2.6-.8.7-1.2-.3-1.8-.8 1-1 2-2 3.5-1.8Zm-6.2 2.6-1-1.2c2.3-1.3 2 0 3.6 1.5v.2c-1 0-2 .5-2.6-.5Zm7.1 6.1c-.3.4-.9 1-1.3.4-1.4-1.7-3-3.2-4.3-5 1.8-.4 2-.2 3.1 1.2.5.8 3 2.6 2.5 3.4Z"/>
  <path fill="#fff" d="M23 24.1a2.6 2.6 0 0 0 .2-.9A578.3 578.3 0 0 1 21 13l-.5-2.6c-.4-.6.6-.7.7-.2.8 4.7 2.4 9.4 2.8 14.1-1.8 3.3-6.6 4.4-9.9 3.5-.6-.3-.6-1-.9-1.5l-2.6-5.8A29 29 0 0 1 9 17c-.3-.6-1.2-2.8-.9-3 .2 0 .8.8 1.2 1.3.6 1 .7 1.8 1.5 3.4l.6 1.3 2.8 6.4c0 .1 0 .4.3.6.9 1.1 3.7.1 4.9-.3 1.5-.5 3.2-1.2 3.7-2.6Z"/>
  <path fill="#fff" d="M17.7 23.9a2 2 0 0 0-1-1c-1.4-.8-3.4.7-2.3 2.6 1 1.8 3.7.6 3.4-1.4l-.1-.2ZM16 25.5c-1.3 0-1.5-2 0-2 1.3 0 1.2 2 0 2Zm-.4-6.8-.2-.4c-1.2-.8-2.7.7-2 1.9.9 1.8 3.5 0 2.2-1.5Zm-1 1.6-.4-.2c-.3-.3-.4-.8-.1-1 .2-.3.4-.2.5-.2 0 0 .2 0 .3.2.2.3.2.7 0 1l-.3.2Zm5.7 1.1c-1.8 0-1.7 2.7 0 2.7s1.8-2.7 0-2.7Zm0 2.1c-1 0-1-1.5 0-1.5s.9 1.6 0 1.5Zm.1-9.7c0 1.5-2.2 1.6-2.3.1 0-1.5 2.3-1.5 2.3 0Zm-6.5 2.4c0 .4-.4.6-.7.7H13c.1.6-.4 1-.8.5-.1-.3-.3-.4-.5-.3-.4.2-.5 0-.6-.2 0-.4.5-.6.9-.7-.3-.9.8-1.3.8-.2.3 0 .9-.1 1 .2ZM21 8.4l-.2.3c-.2 0-.4-.4-.7-1a22.4 22.4 0 0 0-.6-1.3.5.5 0 0 1 0-.3c0-.2.2-.4.4-.4.4 0 .7.7.9 1.3.4.9.3 1.3.2 1.4ZM7.5 13.7c-.1.2-.5.4-.7.3-.2 0-.3-.2-.3-.3-.1-.3-.8-1.6-.5-2.2l.3-.2s.2 0 .7 1c.4.7.6 1.1.5 1.4Zm1.2-2.5c0 .2-.1.3-.3.3-.2 0-.4-.1-.4-.3 0-.2.1-.5.4-.5.2 0 .3.3.3.5Z"/>
</svg>
