<svg width="187" height="31" viewBox="0 0 187 31" fill="none" xmlns="http://www.w3.org/2000/svg">
<path d="M33 11.8473H20.3985L16.5061 0L12.6015 11.8473L0 11.8353L10.2053 19.1647L6.30077 31L16.5061 23.6826L26.6992 31L22.8069 19.1647L33 11.8473Z" fill="#00B67A"/>
<path d="M23.4 21.9057L22.5213 19.0771L16.2 23.8464L23.4 21.9057Z" fill="#005128"/>
<path d="M71 11.8473H58.3985L54.5061 0L50.6015 11.8473L38 11.8353L48.2053 19.1647L44.3008 31L54.5061 23.6826L64.6992 31L60.8069 19.1647L71 11.8473Z" fill="#00B67A"/>
<path d="M61.4 21.9057L60.5213 19.0771L54.2 23.8464L61.4 21.9057Z" fill="#005128"/>
<path d="M109 11.8473H96.3985L92.5061 0L88.6015 11.8473L76 11.8353L86.2053 19.1647L82.3008 31L92.5061 23.6826L102.699 31L98.8069 19.1647L109 11.8473Z" fill="#00B67A"/>
<path d="M99.4 21.9057L98.5213 19.0771L92.2 23.8464L99.4 21.9057Z" fill="#005128"/>
<path d="M148 11.8473H135.398L131.506 0L127.602 11.8473L115 11.8353L125.205 19.1647L121.301 31L131.506 23.6826L141.699 31L137.807 19.1647L148 11.8473Z" fill="#00B67A"/>
<path d="M138.4 21.9057L137.521 19.0771L131.2 23.8464L138.4 21.9057Z" fill="#005128"/>
<path d="M187 11.8473H174.398L170.506 0L166.602 11.8473L154 11.8353L164.205 19.1647L160.301 31L170.506 23.6826L180.699 31L176.807 19.1647L187 11.8473Z" fill="#00B67A"/>
<path d="M177.4 21.9057L176.521 19.0771L170.2 23.8464L177.4 21.9057Z" fill="#005128"/>
</svg>
